<?xml version="1.0" encoding="UTF-8"?>
<svg xmlns="http://www.w3.org/2000/svg" viewBox="0 0 48 48">
  <defs>
    <style>
      .cls-1 {
        fill: #f7f7f7;
      }

      .cls-2 {
        fill: #323333;
      }
    </style>
  </defs>
  <g id="_背景" data-name="背景">
    <rect class="cls-1" width="48" height="48" rx="17.01" ry="17.01"/>
  </g>
  <g id="_レイヤー_1" data-name="レイヤー 1">
    <g>
      <path class="cls-2" d="M13.31,32.76L.95,25.35v-2.42l12.37-7.4v3.29L3.95,24.14l9.37,5.33v3.29Z"/>
      <path class="cls-2" d="M26.55,8.92h2.77l-9.24,30.12h-2.77L26.55,8.92Z"/>
      <path class="cls-2" d="M34.59,32.76v-3.29l9.37-5.33-9.37-5.33v-3.29l12.37,7.4v2.42l-12.37,7.4Z"/>
    </g>
    <path class="cls-2" d="M29.23,29.97c-2.35,0-3.84-2.01-5.11-4.24-1.28,2.23-2.79,4.24-5.11,4.24-2.53,0-4.91-2.3-4.91-6.41s2.37-6.41,4.91-6.41c2.35,0,3.84,1.98,5.11,4.24,1.28-2.27,2.77-4.24,5.11-4.24,2.53,0,4.91,2.3,4.91,6.41s-2.37,6.41-4.91,6.41Zm-10.23-2.36c1.67,0,2.79-1.88,3.97-4.05-1.17-2.17-2.3-4.05-3.97-4.05s-2.77,1.88-2.77,4.05,1.12,4.05,2.77,4.05Zm6.26-4.05c1.17,2.17,2.3,4.05,3.97,4.05s2.77-1.88,2.77-4.05-1.12-4.05-2.77-4.05-2.77,1.88-3.97,4.05Z"/>
  </g>
</svg>